<svg id="Calque_1" data-name="Calque 1" xmlns="http://www.w3.org/2000/svg" viewBox="0 0 1280 510"><defs><style>.cls-1{fill:#5abba7;}.cls-2{fill:#69afa1;}</style></defs><title>pattern</title><rect class="cls-1" width="1280" height="510"/><path class="cls-2" d="M277.91,116.63c-1.55,2-2.8,4.2-4.54,5.88-6.4,6.16-12.87,12.26-19.52,18.16a7.41,7.41,0,0,1-5.29,1.83c-1-.14-2-2.64-2.41-4.23-2.36-9.56-4.49-19.17-6.81-28.75-.73-3-.4-5.9,3.25-4.88,11.38,3.2,22.59,7,33.86,10.6C276.74,115.34,276.94,115.7,277.91,116.63Zm-32.59-5.51c2.06,8.81,3.76,16.13,5.42,23.23L268.53,118Z"/><path class="cls-2" d="M37.81,381.87c8.46,2.6,15.8,4.89,23.16,7.11,3.2,1,6.48,1.69,9.63,2.77s4,3.46,1.67,5.76Q60.53,409,48.27,420c-1.82,1.63-4.44,1.27-5.18-1.65-2.78-11-5.47-22.05-7.9-33.15C35,384.23,37,382.82,37.81,381.87ZM64.12,395.7l-22.69-7c1.93,8.25,3.74,15.95,5.47,23.36Q55.63,403.75,64.12,395.7Z"/><path class="cls-2" d="M396.16,411.26c-.1-4.11.89-5.27,4.25-4.21,10.3,3.28,20.69,6.26,31,9.43,3.74,1.16,3.22,3.78,1.14,5.8-7.49,7.26-15.17,14.32-22.86,21.37-2.15,2-5.15,2.63-6-.71C400.78,432.13,398.47,421.17,396.16,411.26Zm28.95,8.86L402,413.05l5.65,23.14Z"/><path class="cls-2" d="M236,426.21c-5.13-.18-10.25-.39-15.37-.52-3.93-.1-5-2.2-3.2-5.31q7.92-13.69,16.33-27.1c2-3.18,5-2.88,6.66.26,4.54,8.4,9.08,16.8,13.53,25.25,3.46,6.57,2.51,8.12-4.63,7.88Zm1-27.12-13.3,21.05,25.07.86C244.79,413.52,241,406.53,237,399.09Z"/><path class="cls-2" d="M74.21,105.91c-5-.17-9.92-.28-14.87-.53-4.35-.22-5.76-2.75-3.53-6.39Q63.55,86.35,71.47,73.8c2.47-3.93,5.1-4,7.32,0,5,9.1,9.85,18.29,14.69,27.47,1.67,3.17.38,5.17-3.37,5.12C84.81,106.36,79.51,106.09,74.21,105.91ZM86.81,101,75,78.8,61.8,100.12Z"/><path class="cls-2" d="M388.59,182.78c-.18,5.13-.43,10.26-.51,15.39-.05,3.64-2.19,5-4.94,3.36-9.55-5.56-19-11.36-28.2-17.46-2.92-1.93-1.5-4.82,1-6.21q13.64-7.59,27.53-14.71c3.16-1.61,5.68.25,5.63,3.9C389,172.29,388.77,177.54,388.59,182.78Zm-5-13.24-22,12,21.18,13Z"/><path class="cls-2" d="M146.86,224.69c.12,4.46.44,8.92.34,13.37-.17,7.34-.57,14.67-.93,22-.23,4.8-1.54,5.71-5.48,3.35q-13.33-8-26.42-16.44c-2.33-1.49-4.23-4-.79-6,10.34-5.87,20.91-11.35,31.39-17Zm-6,32.2.86-24.9-22,11.83Z"/><path class="cls-2" d="M321.78,292.59c-3.08-1.54-5.44-2.55-7.63-3.85-4.08-2.42-8.07-5-12.09-7.53-2.5-1.58-2.57-3.17-.1-4.51,5.6-3,11.21-6,16.87-8.95,3.05-1.57,3.82-1,3.72,2.33C322.33,277.16,322.07,284.25,321.78,292.59ZM305.23,279l13.33,8.22.54-15.58Z"/><path class="cls-2" d="M319.05,387.94c-3.94-.14-7.87-.36-11.81-.38-2.86,0-3.94-1.25-3.81-4.1q.54-11.54.8-23.09c.07-2.93,1.41-3.85,4.18-3.72,7.86.36,15.73.65,23.59.81,3,.05,4.34,1.09,4.17,4.27-.39,7.35-.55,14.7-.81,22.06-.11,3.23-1.4,5-5,4.59S322.81,388.07,319.05,387.94Zm10.78-5,.69-20.06-20.84-.71-.69,20Z"/><path class="cls-2" d="M168.36,365.4c-.14,4.1-.37,8.21-.4,12.32,0,2.82-1.15,4-4,3.86-7.52-.35-15.06-.51-22.58-.84-3-.12-4.51-1.4-4.3-4.79.47-7.52.68-15.05.8-22.58,0-3.15.93-4.74,4.45-4.53,7.52.43,15,.66,22.57.78,3.23.06,4.13,1.55,3.92,4.51C168.51,357.87,168.49,361.64,168.36,365.4Zm-25-11.08-.73,21.07,19.84.69.73-21.07Z"/><path class="cls-2" d="M149.47,84.85c-3.76-.13-7.53-.41-11.29-.35-3.41.06-4.45-1.41-4.27-4.69.41-7.35.64-14.71.77-22.07.06-3,1.06-4.35,4.26-4.19q11.79.62,23.59.81c3.27,0,4.09,1.93,4,4.53-.18,7.7-.33,15.4-.94,23.07-.09,1.2-2.43,3.05-3.84,3.15A112.57,112.57,0,0,1,149.47,84.85ZM139.42,79l20.89.72L161,59.79l-20.89-.72Z"/><path class="cls-2" d="M455.7,95.85c-5-.62-11.72.44-14.53-2.38-2.49-2.5-.64-9.32-.7-14.23,0-.34,0-.68,0-1,.5-14.38.5-14.38,14.67-13.81,4.45.17,8.89.56,13.33.5,2.92,0,4.19,1.43,4.16,3.88-.12,8-.35,16.08-.92,24.1-.08,1.07-2.35,2.73-3.68,2.81-4.08.25-8.21-.14-12.31-.28Zm-10.15-6.3,20.89.72.68-19.91-20.89-.73Z"/><path class="cls-2" d="M45.31,174.35c-.08,2.5-.29,5-.22,7.5s-1,3.11-3.32,3c-4.76-.29-9.53-.47-14.3-.49-2.52,0-3-1.15-2.92-3.39.28-4.87.48-9.76.5-14.64,0-2.38,1.07-3.24,3.24-3.16,5,.16,10,.23,15,.62a3.43,3.43,0,0,1,2.22,2.43A69.43,69.43,0,0,1,45.31,174.35Zm-3.19-7-13.44-.47-.48,13.85,13.32.46c.07-.73.16-1.27.18-1.82C41.85,175.39,42,171.45,42.12,167.31Z"/><path class="cls-2" d="M239.1,223c.5,7.45-6.81,15.54-15.76,15.58s-17-8.27-16-16.67c1.2-9.91,7.21-14.89,15.76-15.2A15.57,15.57,0,0,1,239.1,223Zm-15.26-10.88c-4.74-.34-9.76,4.22-10.45,8.83-1,6.42,4.23,11.74,9.41,12.36,4.64.54,10.67-5.14,11.1-9.9C234.38,218,229.46,212.5,223.84,212.09Z"/><path class="cls-2" d="M347.78,50.5c8.48.61,15.34,8.2,15,16.57-.35,8-8.75,15.9-17,15.19-9.12-.78-15.52-8.25-14.87-17.64C331.52,56,338.78,49.86,347.78,50.5ZM346.2,76.8c4.77.29,10.94-5.34,11.28-10.29.32-4.78-5.23-10.38-10.6-10.7-5.11-.3-10.31,4.43-10.8,9.84C335.63,70.55,341,76.48,346.2,76.8Z"/><path class="cls-2" d="M477.46,290a14.61,14.61,0,0,1-15.31,14.46c-9.89-.32-15.85-6.67-15.52-16.5.28-8.11,6.86-14.83,14.33-14.64C472.9,273.61,477.85,278.61,477.46,290Zm-5.16-.7c.22-6.73-3.64-10.42-11.05-10.57-4.59-.09-9.26,4.78-9.46,9.88s5,10.49,10.13,10.69C466.33,299.45,473.2,294.71,472.3,289.27Z"/><path class="cls-2" d="M317.48,485.59c-10.06-.35-16.55-7-15.83-16.24.59-7.57,8.24-15,15.27-14.82,10.59.25,16.81,6.56,16.46,16.7C333.08,479.87,326.4,485.9,317.48,485.59Zm.25-5.17c5.08,1.32,10.35-5.52,10.59-9.83.3-5.43-5.46-10.51-10.12-10.62-6.13-.15-10.25,3.7-10.48,9.77C307.48,476.27,311.18,480.22,317.73,480.42Z"/><path class="cls-2" d="M89.9,284.7c1.2,8.54-8,14.94-15.9,14.84-7.56-.1-15.59-8.68-15.23-16.35.38-8.4,9.09-15.32,14.92-15.09C85,268.54,90.27,273.83,89.9,284.7Zm-5.17-.43c.24-6.44-3.33-10.27-9.87-10.58a10.55,10.55,0,0,0-10.63,9.77C64,288.65,69,293.82,74.37,294.09,80.43,294.39,84.5,290.54,84.73,284.27Z"/><path class="cls-2" d="M154.3,302.51c-2.8,3.31-4.77,6.07-7.19,8.33a8.76,8.76,0,0,1-5,1.91c-.83.07-2.15-1.34-2.57-2.37-.25-.6.64-1.94,1.33-2.63,2-2,4.53-3.58,6.27-5.78,4.57-5.8,10.71-5.59,14,.93,2.92,5.79,4.83,7.72,9.83.71,5.4-7.58,10.28-7.08,14.87.93,1.54,2.7,4.42,4.64,6.72,7-3.62,5-3.66,5-14.43-7.54-3.81,3.61-5.87,9.84-12.29,9.7C159.15,313.52,157.43,307.33,154.3,302.51Z"/><path class="cls-2" d="M31.25,225.3c-4.49,4-6.06,11.8-15,8.54.65-1.39,1-3.14,2.06-4.24,2-2.08,4.76-3.48,6.52-5.7,4.2-5.33,9.8-5.31,13.34.42.35.57.53,1.24.84,1.84,2.69,5.23,4.83,5.43,8.35.7,1-1.34,1.65-3,2.74-4.2,3-3.45,8.33-2.43,11.51,2.16,1.81,2.62,2.25,6.58,6.73,6.62.36,0,1.16,2,.92,2.84a3.4,3.4,0,0,1-2.38,1.91c-4.87.77-6.64-3.29-9-6.24-.92-1.12-1.34-2.65-2.2-4.45-4.33,3.47-5.47,10-12.44,10.12C36,235.75,35.26,229.32,31.25,225.3Z"/><path class="cls-2" d="M373.41,117.43c2.38-3.12,3.93-4.9,5.19-6.86,3.76-5.87,10.06-5.67,13.62.2,1.46,2.42,4,4.17,5.85,6.4a4.56,4.56,0,0,1,1,3.24c-.14.72-2,1.88-2.38,1.65a47.55,47.55,0,0,1-7.89-5.46c-1.4-1.27-2.07-3.36-3.24-5.37-4.11,4.12-6.45,11.35-12.74,9.73-4.52-1.17-8.1-6-12.45-9.43A67.22,67.22,0,0,1,353.7,119c-1.29,1.12-3.78,1.41-5.58,1.13-.8-.12-1.25-2.57-1.27-2.62,3-3,5.47-4.8,7.13-7.2,4.51-6.47,10-6.47,14.41.24C369.77,112.62,371.35,114.6,373.41,117.43Z"/><path class="cls-2" d="M275.79,193.42c4.51,4.34,8.47,7.17,11.11,10.93,3.62,5.15,3.05,9-2.88,11.89-6.55,3.21-6.84,5.76-.4,9.72,7.54,4.65,5,11.28-.63,14.71-1.95,1.19-3.31,3.33-5.09,4.86a20.3,20.3,0,0,1-3.48,2c-.54-1.36-1.94-3.24-1.49-4a40.14,40.14,0,0,1,5.92-7.11c1.11-1.09,2.79-1.6,5-2.81-2.19-1.72-3.61-3.06-5.24-4.08-6.73-4.19-6.77-12.17,0-16.44a11.55,11.55,0,0,1,2.12-1.33c5-1.73,2.54-3.44.2-5.56a27.65,27.65,0,0,1-5.93-6.74C274.28,198.15,275.41,195.83,275.79,193.42Z"/><path class="cls-2" d="M464.12,185.56c-1.74-7.22,2.29-9.82,7-11.94,3.08-1.39,2.89-2.81.33-4.62-10.45-7.4-10.13-13,1-19.73a17.39,17.39,0,0,0,2-1.67c-3.12-4.6-11.84-5.91-8.54-14.49.85,0,2.66-.44,3.25.2,3.35,3.69,6.38,7.68,9.59,11.51,2.86,3.4.6,5.77-1.52,8.18-.31.35-.88.47-1.3.73-8.4,5.25-8.4,5.36-.55,11.53,4.82,3.79,4.55,9.28-.36,12.75-2.44,1.73-4.35,4.17-6.71,6C467.24,184.86,465.66,185,464.12,185.56Z"/><path class="cls-2" d="M356.44,366.19c4-4.08,7.24-7.95,11-11.22,2.87-2.48,6.3-2.05,9.09.65a19.43,19.43,0,0,1,2.55,3.72c3.63,5.73,4.92,5.77,8.91.25,2.08-2.86,3.89-6.29,8.37-5a10.47,10.47,0,0,1,4.33,2.16c3.07,3,4,8,9,9.23.27.07.11,1.88.15,2.87-8.42,2.64-10.38-4.16-13.67-9.58-4.69,2.83-5.51,9.89-12.83,9.51-7.1-.36-8.15-5.91-11.32-10.31C367.05,361.56,365.55,371.85,356.44,366.19Z"/><path class="cls-2" d="M170,477.75c-.22-5.55-.22-5.55,9.68-15.66a24.86,24.86,0,0,0-3.72-3c-3.77-2.06-5.57-4.88-5.52-9.39s2.85-6.55,6.23-8.33c4.68-2.46,4.67-3,.28-6-3.06-2.08-6.45-4.14-5.54-8.7.21-1.07,1.1-2.63,1.91-2.79s2.18.91,2.95,1.75c1.51,1.63,2.48,3.85,4.18,5.16,7.41,5.73,6.6,10,.47,14.61a21,21,0,0,1-3,1.82c-3.29,1.7-2.9,3.92-.51,5.85,3.31,2.69,8.3,4.25,7.92,9.53-.34,4.79-4.76,6.43-8.37,8.55-.91.53-1.26,1.94-2.08,2.72C173.65,475.06,172.23,476,170,477.75Z"/><path class="cls-2" d="M195.51,144.94c-3.25-6.21-2-9.43,3.8-12.82,5.11-3,5.3-3.61,0-6.31-3.94-2-5.21-4.67-5-8.86s2.12-6.89,5.88-8.59a34.26,34.26,0,0,0,4.5-3c-4.69-4.15-12-6.17-8.91-14.55.92,0,2.53-.39,3.05.18a128.29,128.29,0,0,1,8.78,10.7c3,4.2,2.23,7.24-2.08,9.91a38.73,38.73,0,0,0-3.84,2.41c-2.86,2.26-3.54,4.47.17,6.74,1.85,1.12,4.35,2.41,4.91,4.15.87,2.69,1.2,6.22.11,8.66-.92,2.06-4.42,2.83-6.34,4.64S197.48,142.24,195.51,144.94Z"/><path class="cls-2" d="M112.66,458.56c.26-8.31,5.88-14.74,14.09-15.54,1.46-.14,3.11,1.69,4.67,2.61-1.1.91-2,2.29-3.31,2.67-9,2.75-12.42,7.42-9.14,14.41,1.34,2.87,5.33,4.47,8.06,6.72,1.19,1,2.23,2.17,3.34,3.26-1.8.63-3.83,2.15-5.37,1.76C116.57,472.31,112.39,466.66,112.66,458.56Z"/><path class="cls-2" d="M159.15,139.93c3.19-.65,5,.36,4.43,3.93-1.28,7.36-9.35,14.15-16.36,13.9S133,151.3,131.88,144c-.51-3.23,0-6,4.71-4.92,1.37,5.52,2.08,11.82,9.72,12.42C153.09,152.06,155.35,149.93,159.15,139.93Z"/><path class="cls-2" d="M455.17,465.34c4.21,2,3.57,4.29,2.71,7.17-2.46,8.19-8.59,12.23-17.66,11.14-6.78-.81-13.15-7.87-13.08-14.9,0-1.32,1.42-2.63,2.19-3.95,1,1.1,2.49,2.05,2.81,3.31,2.39,9.49,8.58,12.95,16.16,8.48,1.84-1.09,3.09-3.36,4.27-5.29A45.64,45.64,0,0,0,455.17,465.34Z"/><path class="cls-2" d="M30,328.59c-8.85-.34-15.61-6.85-15.08-14.89.09-1.4,1.71-2.7,2.63-4,.81,1.25,2.12,2.41,2.35,3.76.91,5.28,5.16,9.76,9.88,10,5.53.26,9.23-3,10.82-9.08.38-1.42,2-2.49,3.13-3.72.64,1.4,1.64,2.74,1.86,4.2C46.47,320.78,37.94,330.07,30,328.59Z"/><path class="cls-2" d="M449.49,213.67c-2.62,1.21-4.18,2.26-5.89,2.65-4.83,1.11-9.11,5.65-9.2,10.12-.11,5.17,3.33,9.09,8.82,10.53,1.57.41,2.89,1.72,4.56,2.76a9.54,9.54,0,0,1-13.07-.79c-6.53-6.39-7.6-15.49-2.59-21.95C436.34,211.56,443.05,209.77,449.49,213.67Z"/><path class="cls-2" d="M242.76,339.28c-9.29,1.74-14.38-1.48-17.38-7.53a15.63,15.63,0,0,1,1.06-15.93c3.39-4.94,8.36-8.49,15.63-6.28.17,2.49.6,4.42-3.44,4.83a9.94,9.94,0,0,0-9.29,10.52c.29,5.32,2.91,8.32,8.83,10C239.66,335.26,240.71,337.24,242.76,339.28Z"/><path class="cls-2" d="M317.34,190.9a126.28,126.28,0,0,1-.6,12.78c-.2,1.47-2.16,2.71-3.31,4-.91-1.4-2.6-2.8-2.59-4.2.05-8.87.38-17.75.92-26.6.07-1.09,2-2.06,3.05-3.08,1,1.08,2.82,2.12,2.86,3.24C317.85,181.68,317.49,186.3,317.34,190.9Z"/><path class="cls-2" d="M72,469.43l7.45,3.4,7.09-4.09c.65,1.13,1,1.55.94,1.67-3.28,4.85-3.73,9.83.53,15.07l-1.73.89L78.57,483l-6.9,3.85-1.59-1.21c1.27-2.72,2.54-5.44,3.93-8.39-.92-1.61-2.23-3.94-3.54-6.27Z"/><path class="cls-2" d="M313.07,46.44c-.25,4.76-3.6,7.75-8.26,7.36s-7.33-3.41-7.17-8.06,3.74-8.17,8.08-8A7.92,7.92,0,0,1,313.07,46.44Z"/><path class="cls-2" d="M265,455c.17-5.13,2.65-7.25,8.18-7a7.73,7.73,0,1,1-1.31,15.41C266.9,463.24,264.81,460.67,265,455Z"/><path class="cls-2" d="M287.12,325.91l4.3,7.5-1.4,1.51-7-3.85-7.51,3.67-1.58-1.64c1.37-2.35,2.73-4.7,3.34-5.73-.58-3.61-1-6.38-1.47-9.15l6.69,2.17c2.33-.48,6.4-2.44,7.52-1.36C293.41,322.4,287.65,323.48,287.12,325.91Z"/><path class="cls-2" d="M235.48,260.57c5.11.2,7.38,2.56,7.21,7.47a7.74,7.74,0,1,1-15.45-.55C227.43,262.4,229.87,260.35,235.48,260.57Z"/><path class="cls-2" d="M321.41,118.47l-3.74,6c.79,2.89,2.94,6.95,2,7.95-3.28,3.36-4.74-1.51-6.85-1.67l-8,1.93,2.69-8.31-3.72-6.33.85-1.85c5.22,4.55,10.57,3,15.94.64Z"/><path class="cls-2" d="M385.87,231.78c-.18,5.7-2.46,8.18-7.42,8.05-4.63-.13-8.18-3.67-8-8a7.91,7.91,0,0,1,8.58-7.41C383.77,224.6,386,227,385.87,231.78Z"/><path class="cls-2" d="M384.94,491.64l-6.32-4.24-6.95,3.68-1.5-1.42,3.29-7.23L369.52,475l1.78-1.56,7.1,4.53,7.38-4.05,1.73,1.1c-5,5-2.54,10.28-.78,15.53Z"/><path class="cls-2" d="M118.94,396.76c-.12,5.39-2.51,7.76-7.75,7.66-5-.1-7.79-3-7.7-7.88a7.91,7.91,0,0,1,8.44-7.55C115.56,389.1,119,392.94,118.94,396.76Z"/><path class="cls-2" d="M174.8,181c1.56,2.74,3,5.2,4.38,7.66l-1.32,1.57L170,186.89l-6.93,3.93-1.64-1.42c1.28-2.63,2.56-5.26,4-8.28l-3.66-6.86c1.65-.29,2.28-.61,2.59-.42,3.94,2.4,7.8,4.49,11.43-.53a3.83,3.83,0,0,1,2.15,1.22,3.66,3.66,0,0,1,.11,3A21.79,21.79,0,0,1,174.8,181Z"/><path class="cls-2" d="M117.91,40.09l-6.62-4.15-6.73,3.75L103,38.44c1.06-2.54,2.12-5.09,3.31-8l-4-6.75,1.5-1.67,7.43,4.52,7-4.15,1.49,1.25-3.29,7.25,3.08,7.58Z"/><path class="cls-2" d="M111.24,112.21c.2-5.21,2.33-7.09,7.75-6.85,4.77.21,7.75,3.09,7.68,7.41-.06,3.75-4.66,8.56-8.14,7.91C114,119.83,110.07,117.06,111.24,112.21Z"/><path class="cls-2" d="M420.81,138.4c-1-1.88-2.13-4.1-3.28-6.33l1.26-1.42,7.84,3.24,7-3.82,1.51,1.4c-1.35,2.66-2.7,5.32-4,7.92,1.1,1.92,2.43,4.23,3.75,6.55l-1.69,1.62-6-3.5-8.62,1.88C419.28,143.51,420,141.08,420.81,138.4Z"/><path class="cls-2" d="M13.79,442.3c6,.55,23.73,20.59,23.18,25.85C31.52,468.55,13.15,448.43,13.79,442.3Z"/><path class="cls-2" d="M94.32,326.25l6.93,2.95,6.74-3.69,1.53,1.26c-1.07,2.55-2.15,5.1-3.33,7.92l4,6.84c-.47.56-.93,1.12-1.4,1.67l-8.14-4-6.47,3.66-1.6-1.7,4-6.75L93,327.56Z"/><path class="cls-2" d="M265.5,72c-5.64.13-23.78-20.12-23-25.68C248.13,46.16,266.27,66.4,265.5,72Z"/><path class="cls-2" d="M405.62,307.39c-5.21-.31-23.4-19.76-23.38-24.72C388.16,281.85,406.18,300.56,405.62,307.39Z"/><path class="cls-2" d="M458.13,351.83c3.54-.66,4.91.63,4.74,4.08-.41,8.51-.49,17-1,25.53-.11,1.84-1.51,3.6-2.5,5.82C456.36,383.75,456.11,368.64,458.13,351.83Z"/><path class="cls-2" d="M98.08,164.6C96,176,91.12,186.5,88,197.49c-4.21-.09-4.54-2.52-3.7-5.19,2.62-8.33,5.33-16.63,8.29-24.83.56-1.55,2.47-2.61,3.75-3.9Z"/><path class="cls-2" d="M31.34,45.23c-.9,11.38.13,23-2,34.32l-2,.34c-.75-1.65-2.15-3.32-2.14-5,.07-8.72.4-17.45.85-26.16C26.21,46,27.35,43.78,31.34,45.23Z"/><path class="cls-2" d="M221.35,462l-1.15,33.32c-3.53.74-5-.44-4.83-3.92.39-8.51.7-17,.88-25.56C216.31,462.45,217.57,461,221.35,462Z"/><path class="cls-2" d="M768.06,100.37a47.41,47.41,0,0,1-3.83,6c-5.58,6.44-11.25,12.82-17.09,19a7.17,7.17,0,0,1-4.9,2.21c-1-.05-2.16-2.35-2.67-3.83-3.08-8.94-5.94-18-9-26.9-1-2.81-.89-5.61,2.68-4.94,11.16,2.08,22.2,4.75,33.28,7.22C766.84,99.23,767.06,99.56,768.06,100.37ZM736.44,97.9c2.72,8.25,5,15.1,7.18,21.74l15.6-17.16Z"/><path class="cls-2" d="M561.38,374.54c8.31,1.76,15.53,3.31,22.75,4.81,3.14.65,6.34,1,9.44,1.81s4.15,3,2.1,5.37q-10.24,12-21,23.52c-1.6,1.71-4.14,1.6-5.1-1.13-3.6-10.29-7.13-20.61-10.4-31C558.89,377,560.71,375.51,561.38,374.54Zm26.34,10.95-22.29-4.75c2.55,7.72,4.94,14.92,7.24,21.85Z"/><path class="cls-2" d="M906.43,371.82c-.45-3.93.4-5.12,3.7-4.39,10.12,2.25,20.31,4.19,30.46,6.34,3.68.78,3.41,3.34,1.59,5.44-6.54,7.59-13.27,15-20,22.4-1.88,2.07-4.69,2.95-5.83-.16C912.64,391.37,909.49,381.09,906.43,371.82Zm28.43,6L912.18,373l7.4,21.62Z"/><path class="cls-2" d="M754.64,399.88c-4.91.27-9.83.5-14.74.82-3.76.24-5-1.68-3.51-4.8q6.39-13.77,13.28-27.31c1.65-3.21,4.5-3.18,6.39-.32,5.06,7.64,10.12,15.28,15.1,23,3.88,6,3.1,7.54-3.74,7.93Zm-1.35-26c-3.74,7.31-7.27,14.19-10.9,21.27l24-1.33Z"/><path class="cls-2" d="M572.45,107.64c-4.76.26-9.51.58-14.27.77-4.17.16-5.74-2.13-3.92-5.8q6.32-12.75,12.8-25.42c2-4,4.54-4.26,7-.6,5.58,8.26,11,16.63,16.41,25,1.86,2.88.8,4.9-2.78,5.18C582.62,107.16,577.53,107.35,572.45,107.64Zm11.62-5.79L570.88,81.66l-10.79,21.51Z"/><path class="cls-2" d="M879.55,154.08c.27,4.92.47,9.84.83,14.75.27,3.49-1.67,4.93-4.43,3.64q-14.41-6.74-28.46-14.26c-3-1.6-1.84-4.48.43-6q12.39-8.43,25.06-16.42c2.87-1.82,5.45-.25,5.71,3.24C879.06,144,879.27,149.05,879.55,154.08Zm-6-12.22-20,13.35,21.36,10.63Z"/><path class="cls-2" d="M652.09,214.92c.51,4.25,1.19,8.49,1.48,12.76.48,7,.72,14.07,1,21.1.19,4.61-1,5.6-5,3.68-9-4.34-17.84-8.85-26.67-13.44-2.35-1.22-4.39-3.49-1.27-5.66,9.38-6.49,19-12.64,28.54-18.93Zm-3,31.3-1.32-23.88-20.05,13.21Z"/><path class="cls-2" d="M831.71,271.62c-4.88-1.92-8.59-3.13-12.07-4.79-6.51-3.11-12.9-6.48-19.33-9.76-4-2-4.33-4.45-.77-6.82,8.06-5.35,16.15-10.67,24.32-15.84,4.39-2.78,5.65-2.08,5.95,3C830.44,248.19,831,258.94,831.71,271.62ZM804.8,253.25l21.29,10.62-1.3-23.65Z"/><path class="cls-2" d="M830.72,356.15c-3.77.21-7.55.34-11.32.65-2.73.24-3.87-.85-4-3.58q-.48-11.09-1.22-22.15c-.19-2.8,1-3.79,3.67-3.91,7.55-.33,15.09-.73,22.62-1.26,2.88-.2,4.24.67,4.35,3.73.26,7.06.74,14.1,1.13,21.15.17,3.1-.92,4.86-4.41,4.83S834.33,356,830.72,356.15Zm9.87-5.71-1.06-19.23-20,1.11,1.06,19.22Z"/><path class="cls-2" d="M684.75,347.57c.22,3.94.35,7.88.68,11.81.23,2.69-.76,3.92-3.53,4-7.22.31-14.44.81-21.66,1.14-2.82.13-4.43-1-4.52-4.21-.2-7.23-.64-14.45-1.18-21.66-.22-3,.48-4.6,3.87-4.71,7.22-.23,14.43-.66,21.63-1.19,3.1-.23,4.09,1.12,4.14,4C684.25,340.36,684.55,344,684.75,347.57ZM660,339.13l1.12,20.2,19-1.05L679,338.07Z"/><path class="cls-2" d="M642.57,81c-3.61.2-7.24.25-10.82.64-3.26.34-4.38-1-4.49-4.12-.24-7.06-.66-14.11-1.16-21.16-.2-2.86.63-4.25,3.71-4.37,7.55-.29,15.09-.69,22.62-1.26,3.13-.23,4.08,1.5,4.24,4,.49,7.38,1,14.76,1.09,22.14,0,1.15-2.07,3.12-3.41,3.34A107.22,107.22,0,0,1,642.57,81Zm-10.11-4.75,20-1.11-1.06-19.09-20,1.11Z"/><path class="cls-2" d="M936.21,65.22c-4.84-.17-11.16,1.42-14.09-1-2.59-2.17-1.41-8.85-1.89-13.54,0-.32,0-.65-.06-1-.76-13.78-.76-13.78,12.83-14.46,4.27-.22,8.55-.23,12.79-.67,2.79-.29,4.13,1,4.31,3.35.57,7.7,1,15.41,1.19,23.12,0,1-2,2.81-3.28,3-3.88.59-7.85.57-11.78.79ZM926,60.07,946,59l-1.06-19.09-20,1.1Z"/><path class="cls-2" d="M555.68,175.28c.2,3.61.23,7.24.65,10.82s-1.06,4.62-4.39,4.72c-6.9.21-13.79.56-20.67,1.15-3.62.32-4.53-1.26-4.63-4.49-.23-7.06-.59-14.12-1.19-21.16-.29-3.43,1.13-4.8,4.26-5,7.21-.41,14.42-1,21.64-1,1.21,0,3.3,1.92,3.52,3.2A104.63,104.63,0,0,1,555.68,175.28Zm-5.51-9.73-19.42,1.07,1.1,20,19.25-1.06c0-1.06.06-1.86,0-2.64C550.82,177.22,550.5,171.53,550.17,165.55Z"/><path class="cls-2" d="M740.12,205.35c1.12,7.08-5.17,15.44-13.73,16.25s-17-6.45-16.71-14.56c.29-9.57,5.6-14.86,13.75-15.89A15,15,0,0,1,740.12,205.35Zm-15.52-9.09c-4.57.08-9,4.88-9.24,9.34-.37,6.22,5.06,10.86,10.06,11,4.48.13,9.76-5.83,9.76-10.41C735.18,201,730,196.17,724.6,196.26Z"/><path class="cls-2" d="M829.16,31.15A15.68,15.68,0,0,1,844.9,45.7c.35,7.7-7,15.95-14.92,16-8.78,0-15.54-6.55-15.72-15.58C814.09,37.78,820.5,31.31,829.16,31.15Zm.75,25.28c4.59-.14,10-6,9.9-10.81-.1-4.6-5.89-9.47-11-9.31-4.91.15-9.47,5.12-9.48,10.33C819.27,51.36,824.93,56.57,829.91,56.43Z"/><path class="cls-2" d="M973.7,248.89A14,14,0,0,1,960.32,264c-9.48.54-15.73-5-16.25-14.44-.43-7.78,5.27-14.76,12.44-15.22C967.94,233.64,973.1,238,973.7,248.89Zm-5-.22c-.38-6.46-4.38-9.65-11.48-9.16-4.39.31-8.43,5.37-8.18,10.26s5.67,9.6,10.59,9.35C963.88,258.9,970,253.79,968.72,248.67Z"/><path class="cls-2" d="M837.61,449.63c-9.63.53-16.41-5.28-16.52-14.16-.08-7.29,6.59-15,13.32-15.49,10.15-.67,16.64,4.83,17.17,14.55C852,442.81,846.17,449.15,837.61,449.63Zm-.2-5c5,.83,9.42-6.16,9.28-10.31-.18-5.21-6.12-9.57-10.59-9.28-5.87.39-9.48,4.42-9.17,10.24C827.26,441.58,831.14,445,837.41,444.66Z"/><path class="cls-2" d="M602.81,277.18c1.89,8.06-6.34,15-13.92,15.55-7.24.56-15.64-7-16-14.31-.35-8.07,7.37-15.43,13-15.71C596.72,262.16,602.23,266.76,602.81,277.18Zm-5,0c-.33-6.18-4.07-9.53-10.34-9.27a10.14,10.14,0,0,0-9.33,10.25c.27,5,5.43,9.5,10.61,9.29C594.6,287.26,598.15,283.23,597.84,277.22Z"/><path class="cls-2" d="M665.9,288.66c-2.39,3.41-4,6.22-6.16,8.59a8.38,8.38,0,0,1-4.6,2.25c-.78.14-2.17-1.1-2.66-2-.29-.56.44-1.91,1-2.63,1.76-2.08,4-3.81,5.49-6.07,3.87-5.93,9.76-6.26,13.46-.3,3.28,5.28,5.28,7,9.45-.18,4.51-7.7,9.22-7.64,14.29-.39,1.71,2.45,4.62,4.06,7,6.09-3,5.09-3.08,5.08-14.45-6-3.32,3.77-4.76,9.9-10.91,10.32C671.48,298.78,669.31,293,665.9,288.66Z"/><path class="cls-2" d="M541.65,225.45c-3.95,4.2-4.78,11.8-13.57,9.45.5-1.39.7-3.09,1.61-4.23,1.72-2.16,4.25-3.73,5.73-6,3.56-5.46,8.92-5.92,12.8-.74.38.51.61,1.13.95,1.68,3,4.77,5.09,4.78,8.05,0,.84-1.36,1.32-3,2.25-4.24,2.61-3.57,7.76-3,11.19,1.07,2,2.35,2.72,6.09,7,5.75.35,0,1.29,1.82,1.13,2.63a3.26,3.26,0,0,1-2.11,2c-4.59,1.15-6.63-2.58-9.16-5.18a22.83,22.83,0,0,1-2.49-4.07c-3.83,3.68-4.37,10-11,10.74C547.13,235,545.82,228.94,541.65,225.45Z"/><path class="cls-2" d="M859.42,92.92c2-3.19,3.33-5,4.37-7,3.09-5.93,9.13-6.28,13-1,1.61,2.19,4.19,3.64,6.14,5.61a4.28,4.28,0,0,1,1.27,3c-.06.69-1.74,2-2.13,1.78a45,45,0,0,1-8-4.54c-1.46-1.09-2.27-3-3.56-4.86-3.58,4.3-5.19,11.41-11.35,10.4-4.42-.72-8.26-5-12.71-7.94a63.49,63.49,0,0,1-5.77,7.67c-1.14,1.18-3.49,1.67-5.24,1.56-.78,0-1.41-2.35-1.43-2.39,2.6-3.1,4.8-5.07,6.19-7.5,3.76-6.58,9-7,13.79-1C855.52,88.63,857.2,90.39,859.42,92.92Z"/><path class="cls-2" d="M772.64,174c4.69,3.76,8.72,6.12,11.56,9.49,3.91,4.61,3.69,8.32-1.73,11.61-6,3.64-6,6.1.45,9.33,7.62,3.79,5.73,10.36.67,14.11-1.77,1.31-2.87,3.47-4.45,5.08a18.5,18.5,0,0,1-3.15,2.17c-.64-1.24-2.14-2.93-1.77-3.67a38.58,38.58,0,0,1,5-7.31c1-1.13,2.53-1.76,4.55-3.11-2.23-1.45-3.71-2.62-5.36-3.45-6.79-3.43-7.51-11-1.43-15.71a10,10,0,0,1,1.91-1.45c4.67-2.09,2.14-3.51-.29-5.33a26.75,26.75,0,0,1-6.24-5.94C771.61,178.6,772.49,176.28,772.64,174Z"/><path class="cls-2" d="M952,150.24c-2.29-6.75,1.35-9.59,5.64-12,2.83-1.6,2.52-2.94-.08-4.45-10.63-6.18-10.81-11.58-.7-19a17,17,0,0,0,1.74-1.76c-3.38-4.13-11.82-4.63-9.41-13.11.82,0,2.51-.66,3.12-.09,3.52,3.24,6.76,6.79,10.16,10.17,3,3,1.07,5.47-.75,7.95-.27.37-.8.52-1.18.81-7.58,5.74-7.57,5.85.47,11.07,4.93,3.2,5.14,8.48.75,12.22-2.18,1.86-3.8,4.36-5.9,6.33C954.9,149.3,953.41,149.6,952,150.24Z"/><path class="cls-2" d="M864.59,332.15c3.43-4.24,6.23-8.22,9.57-11.67,2.54-2.62,5.85-2.5,8.75-.16a18.73,18.73,0,0,1,2.76,3.34c4,5.15,5.2,5.08,8.54-.53,1.74-2.92,3.18-6.35,7.57-5.48a10.23,10.23,0,0,1,4.33,1.7c3.19,2.58,4.54,7.29,9.4,8,.26.05.27,1.79.39,2.74-7.82,3.24-10.28-3.09-13.89-8-4.24,3.1-4.42,9.92-11.45,10.19-6.81.26-8.29-4.95-11.7-8.88C874.33,326.81,873.79,336.78,864.59,332.15Z"/><path class="cls-2" d="M696,454.81c-.69-5.28-.69-5.28,7.9-15.8a25,25,0,0,0-3.81-2.57A9.18,9.18,0,0,1,694,428c-.35-4.4,2.17-6.51,5.24-8.5,4.26-2.75,4.21-3.25-.24-5.71-3.1-1.72-6.52-3.4-6-7.84.11-1,.83-2.61,1.59-2.83s2.16.68,3,1.42c1.57,1.42,2.69,3.46,4.44,4.57,7.57,4.83,7.17,9,1.69,13.93a20.29,20.29,0,0,1-2.71,2c-3,1.91-2.44,4,0,5.64,3.4,2.29,8.3,3.34,8.39,8.42.09,4.62-4,6.56-7.26,8.89-.83.59-1,2-1.76,2.79C699.24,451.93,698,453,696,454.81Z"/><path class="cls-2" d="M496,471.81c-.69-5.28-.69-5.28,7.9-15.8a25,25,0,0,0-3.81-2.57A9.18,9.18,0,0,1,494,445c-.35-4.4,2.17-6.51,5.24-8.5,4.26-2.75,4.21-3.25-.24-5.71-3.1-1.72-6.52-3.4-6.05-7.84.11-1,.83-2.61,1.59-2.83s2.16.68,3,1.42c1.57,1.42,2.69,3.46,4.44,4.57,7.57,4.83,7.17,9,1.69,13.93a20.29,20.29,0,0,1-2.71,2c-3,1.91-2.44,4,0,5.64,3.4,2.29,8.3,3.34,8.39,8.42.09,4.62-4,6.56-7.26,8.89-.83.59-1,2-1.76,2.79C499.24,468.93,498,470,496,471.81Z"/><path class="cls-2" d="M691.74,134.51c-3.64-5.65-2.76-8.84,2.53-12.57,4.63-3.27,4.75-3.91-.5-6-3.94-1.6-5.38-4-5.59-8s1.44-6.77,4.89-8.71a34,34,0,0,0,4-3.26c-4.84-3.56-12-4.86-9.78-13.14.88,0,2.39-.59,2.93-.08a122.19,122.19,0,0,1,9.31,9.46c3.25,3.76,2.76,6.73-1.13,9.65a37.57,37.57,0,0,0-3.46,2.64c-2.54,2.41-3,4.58.74,6.42,1.87.92,4.37,1.94,5,3.55,1.06,2.5,1.68,5.85.85,8.27-.71,2-4,3.08-5.66,5S693.39,131.76,691.74,134.51Z"/><path class="cls-2" d="M639.52,441.4c-.46-8,4.35-14.59,12.13-16.06,1.38-.26,3.12,1.34,4.69,2.09-1,1-1.76,2.36-2.93,2.84-8.35,3.4-11.24,8.16-7.5,14.56,1.53,2.62,5.48,3.81,8.28,5.73,1.23.84,2.32,1.88,3.47,2.82-1.66.77-3.47,2.39-5,2.15C644.44,454.21,640,449.17,639.52,441.4Z"/><path class="cls-2" d="M656.55,132.85c3-.9,4.87-.09,4.58,3.38-.59,7.15-7.72,14.32-14.44,14.69s-14.13-5-15.85-11.8c-.76-3.05-.48-5.78,4.08-5.11,1.79,5.16,3,11.12,10.36,11C651.81,145,653.79,142.74,656.55,132.85Z"/><path class="cls-2" d="M967.49,418.43c4.19,1.55,3.78,3.8,3.2,6.62-1.65,8-7.16,12.43-15.92,12.17-6.55-.2-13.24-6.39-13.79-13.12-.1-1.27,1.14-2.64,1.76-4,1,1,2.56,1.74,3,2.92,3.1,8.87,9.32,11.64,16.18,6.71,1.66-1.19,2.66-3.47,3.62-5.42A44.63,44.63,0,0,0,967.49,418.43Z"/><path class="cls-2" d="M549.35,324.29c-8.49.43-15.51-5.22-15.7-12.94,0-1.35,1.41-2.73,2.17-4.09.88,1.12,2.23,2.12,2.57,3.4,1.32,5,5.77,8.88,10.3,8.69,5.3-.23,8.56-3.71,9.56-9.62.24-1.38,1.75-2.55,2.67-3.82.73,1.28,1.81,2.47,2.14,3.85C564.41,315.41,557.05,325,549.35,324.29Z"/><path class="cls-2" d="M940.41,178.37c-2.4,1.38-3.8,2.52-5.4,3-4.52,1.47-8.22,6.18-7.93,10.46.34,4.95,4,8.4,9.34,9.3,1.53.26,2.92,1.4,4.6,2.25a9.15,9.15,0,0,1-12.56.37c-6.79-5.55-8.6-14.15-4.36-20.75C927.66,177.48,933.92,175.19,940.41,178.37Z"/><path class="cls-2" d="M494.43,264.82c-.45-3.93.4-5.12,3.7-4.39,10.12,2.25,20.31,4.19,30.46,6.34,3.68.78,3.41,3.34,1.59,5.44-6.54,7.59-13.27,15-20,22.4-1.88,2.07-4.69,2.95-5.83-.16C500.64,284.37,497.49,274.09,494.43,264.82Zm28.43,6L500.18,266l7.4,21.62Z"/><path class="cls-2" d="M514.7,375.89A14,14,0,0,1,501.32,391c-9.48.54-15.73-5-16.25-14.44-.43-7.78,5.27-14.76,12.44-15.22C508.94,360.64,514.1,365,514.7,375.89Zm-5-.22c-.38-6.46-4.38-9.65-11.48-9.16-4.39.31-8.43,5.37-8.18,10.26s5.67,9.6,10.59,9.35C504.88,385.9,511,380.79,509.72,375.67Z"/><path class="cls-2" d="M498.41,200.37c-2.4,1.38-3.8,2.52-5.4,3-4.52,1.47-8.22,6.18-7.93,10.46.34,4.95,4,8.4,9.34,9.3,1.53.26,2.92,1.4,4.6,2.25a9.15,9.15,0,0,1-12.56.37c-6.79-5.55-8.6-14.15-4.36-20.75C485.66,199.48,491.92,197.19,498.41,200.37Z"/><path class="cls-2" d="M753.61,316.21c-8.72,2.46-13.86-.18-17.25-5.71a15,15,0,0,1-.36-15.32c2.81-5,7.26-8.83,14.4-7.34.37,2.36,1,4.17-2.88,4.91a9.53,9.53,0,0,0-8,10.86c.73,5.06,3.49,7.69,9.29,8.75C750.31,312.63,751.49,314.43,753.61,316.21Z"/><path class="cls-2" d="M812.14,168c.22,4.09.72,8.19.53,12.26-.07,1.43-1.83,2.78-2.82,4.16-1-1.26-2.72-2.46-2.84-3.79-.71-8.48-1.16-17-1.4-25.51,0-1,1.72-2.13,2.64-3.2,1,.94,2.88,1.78,3,2.85C811.84,159.11,811.89,163.55,812.14,168Z"/><path class="cls-2" d="M601.58,455.29,609,457.9l6.43-4.52c.72,1,1.11,1.4,1.05,1.52-2.72,4.92-2.72,9.72,1.8,14.36l-1.58,1L609,467.7,602.77,472l-1.62-1,3-8.35-3.92-5.69Z"/><path class="cls-2" d="M795.64,30.25c.17,4.58-2.77,7.72-7.27,7.75s-7.29-2.62-7.54-7.08a7.43,7.43,0,1,1,14.81-.67Z"/><path class="cls-2" d="M784.82,424.91c-.28-4.91,1.91-7.15,7.21-7.38a7.43,7.43,0,1,1,.08,14.85C787.35,432.62,785.13,430.34,784.82,424.91Z"/><path class="cls-2" d="M794.87,299.61l4.76,6.8L798.41,308l-7.07-3.07-6.85,4.16-1.66-1.44,2.7-5.77c-.86-3.39-1.53-6-2.19-8.62l6.58,1.51c2.18-.66,5.91-2.89,7.07-1.95C800.58,295.71,795.16,297.24,794.87,299.61Z"/><path class="cls-2" d="M739.89,241.6c4.9-.25,7.27,1.81,7.53,6.52a7.43,7.43,0,1,1-14.81.8C732.35,244,734.51,241.87,739.89,241.6Z"/><path class="cls-2" d="M809.8,98.39c-1.14,2.27-2.27,4.54-3,6.08,1,2.7,3.41,6.39,2.56,7.43-2.84,3.5-4.66-1-6.69-1l-7.47,2.54c.57-2.5,1.13-5,1.85-8.17-.92-1.3-2.5-3.52-4.09-5.74l.65-1.84c5.38,3.9,10.36,1.92,15.3-.76Z"/><path class="cls-2" d="M881.16,201.15c.32,5.47-1.65,8-6.4,8.33a7.43,7.43,0,1,1-.78-14.81C878.54,194.47,880.9,196.6,881.16,201.15Z"/><path class="cls-2" d="M902.61,449.6l-6.39-3.5-6.33,4.12L888.34,449c.88-2.54,1.77-5.08,2.51-7.2-1.45-2.21-2.92-4.47-4.4-6.72l1.57-1.65,7.17,3.72,6.71-4.5,1.75.9c-4.37,5.22-1.55,10,.59,14.91Z"/><path class="cls-2" d="M640.21,381.8c.35,5.16-1.74,7.63-6.75,8-4.74.34-7.7-2.2-8-6.87a7.58,7.58,0,0,1,7.42-7.93C636.32,374.77,640,378.13,640.21,381.8Z"/><path class="cls-2" d="M675.05,170.76c1.73,2.48,3.29,4.71,4.84,7l-1.13,1.61L671,176.8l-6.29,4.36L663,179.94l3.13-8.26-4.09-6.24c1.55-.42,2.12-.79,2.44-.63,4,2,7.84,3.62,10.88-1.49a3.68,3.68,0,0,1,2.16,1,3.53,3.53,0,0,1,.37,2.87A21.66,21.66,0,0,1,675.05,170.76Z"/><path class="cls-2" d="M608.55,41l-6.69-3.39-6.1,4.16-1.59-1.07,2.48-7.9-4.37-6.11,1.28-1.73,7.49,3.69,6.37-4.57L609,25.11l-2.51,7.22,3.59,7Z"/><path class="cls-2" d="M608.38,110.48c-.25-5,1.61-7,6.81-7.22,4.58-.2,7.68,2.29,8,6.43.26,3.58-3.73,8.58-7.1,8.25C611.68,117.52,607.68,115.22,608.38,110.48Z"/><path class="cls-2" d="M906.52,108.89l-3.67-5.77,1.08-1.47,7.77,2.43L918,99.83l1.56,1.2c-1.06,2.66-2.12,5.32-3.15,7.92l4.14,5.93-1.47,1.7-6-2.83L905,116.29C905.5,113.9,906,111.51,906.52,108.89Z"/><path class="cls-2" d="M543.63,434.37c5.74,0,24.44,17.64,24.37,22.71C562.82,457.93,543.54,440.28,543.63,434.37Z"/><path class="cls-2" d="M610.61,316.52l6.88,2.22,6.13-4.11,1.57,1.08c-.81,2.53-1.61,5.06-2.5,7.85l4.38,6.2c-.39.57-.79,1.14-1.18,1.72l-8.13-3.13-5.87,4.06-1.67-1.49,3.26-6.8-4-6.24Z"/><path class="cls-2" d="M752.36,58.75c-5.37.61-24.46-17.18-24.2-22.57C733.54,35.57,752.62,53.36,752.36,58.75Z"/><path class="cls-2" d="M906.54,271.72c-5,.16-24.06-16.88-24.47-21.62C887.66,248.81,906.49,265.14,906.54,271.72Z"/><path class="cls-2" d="M960.55,309.68c3.33-.94,4.75.18,4.89,3.49.34,8.17,1,16.32,1.22,24.49.05,1.77-1.14,3.58-1.89,5.78C961.6,340.35,960.07,325.92,960.55,309.68Z"/><path class="cls-2" d="M595.68,160.77c2.14,10.87,1.49,22,2.54,32.93-3.79,1.4-4.94-.66-5.13-3.34-.59-8.35-1.09-16.71-1.33-25.08,0-1.58,1.28-3.2,2-4.8Z"/><path class="cls-2" d="M526.25,53.32c.11,11,2.09,21.95,1,33l-1.86.5c-.86-1.52-2.35-3-2.48-4.57-.68-8.34-1.11-16.71-1.43-25.07C521.42,54.51,522.31,52.28,526.25,53.32Z"/><path class="cls-2" d="M743.7,435.29l1.77,31.95c-3.31,1-4.81,0-5-3.33-.36-8.17-.8-16.34-1.37-24.5C738.93,436.21,740,434.74,743.7,435.29Z"/><path class="cls-2" d="M1254.31,107.8a48.66,48.66,0,0,1-4.42,5.87c-6.26,6.17-12.59,12.27-19.1,18.18a7.4,7.4,0,0,1-5.22,1.87c-1-.13-2-2.59-2.42-4.16-2.44-9.43-4.66-18.92-7.06-28.36-.75-3-.46-5.84,3.16-4.86,11.29,3,22.42,6.68,33.61,10.11C1253.15,106.54,1253.35,106.89,1254.31,107.8ZM1222,102.71c2.13,8.7,3.9,15.92,5.62,22.92l17.42-16.37Z"/><path class="cls-2" d="M1019.77,372.79c8.4,2.49,15.68,4.66,23,6.79,3.17.92,6.42,1.59,9.55,2.63s4,3.38,1.72,5.68q-11.51,11.49-23.5,22.47c-1.77,1.63-4.38,1.3-5.14-1.58-2.87-10.86-5.65-21.75-8.18-32.7C1017,375.16,1019,373.74,1019.77,372.79Zm26.17,13.39-22.52-6.68c2,8.13,3.88,15.73,5.67,23C1034.79,397,1040.42,391.54,1045.94,386.18Z"/><path class="cls-2" d="M1216.29,414.46c-5.07-.11-10.14-.27-15.21-.34-3.88-.05-5-2.12-3.22-5.21q7.68-13.64,15.86-27c2-3.17,4.87-2.91,6.58.18,4.59,8.26,9.17,16.52,13.67,24.83,3.49,6.46,2.57,8-4.49,7.84Q1222.88,414.64,1216.29,414.46Zm.72-26.83-12.92,21,24.81.58Z"/><path class="cls-2" d="M1052.73,99.45c-4.91-.12-9.82-.17-14.72-.36-4.3-.17-5.73-2.66-3.56-6.28q7.52-12.59,15.21-25.08c2.4-3.92,5-4,7.24-.06,5.06,8.94,9.95,18,14.84,27,1.68,3.11.43,5.1-3.28,5.1C1063.22,99.78,1058,99.57,1052.73,99.45Zm12.41-5-11.92-21.81-12.83,21.23Z"/><path class="cls-2" d="M1125.89,216.13c.17,4.41.53,8.82.48,13.22-.08,7.26-.39,14.52-.67,21.77-.17,4.75-1.46,5.67-5.38,3.37-8.85-5.18-17.61-10.53-26.32-16-2.31-1.45-4.23-3.95-.85-5.91,10.17-5.92,20.56-11.46,30.86-17.15Zm-5.57,31.92.57-24.65-21.66,11.95Z"/><path class="cls-2" d="M1148.71,355.06c-.09,4.07-.27,8.13-.26,12.19,0,2.79-1.1,4-4,3.87-7.45-.27-14.9-.34-22.34-.58-2.92-.09-4.48-1.34-4.31-4.7.38-7.43.51-14.89.54-22.34,0-3.12.87-4.69,4.36-4.53,7.43.35,14.88.49,22.32.53,3.2,0,4.11,1.48,3.93,4.41C1148.78,347.62,1148.8,351.34,1148.71,355.06Zm-24.8-10.68-.48,20.85,19.63.46.48-20.85Z"/><path class="cls-2" d="M1126.93,77.79c-3.72-.09-7.45-.32-11.17-.22-3.37.09-4.42-1.35-4.28-4.59.33-7.28.47-14.56.53-21.84,0-3,1-4.32,4.16-4.19q11.67.48,23.35.54c3.23,0,4.06,1.87,4,4.43-.1,7.62-.16,15.24-.68,22.83-.08,1.19-2.37,3-3.77,3.17A115,115,0,0,1,1126.93,77.79Zm-10-5.7,20.67.49.46-19.71-20.67-.48Z"/><path class="cls-2" d="M1030,167.59c-.08,3.73-.35,7.46-.21,11.18s-1.46,4.66-4.89,4.49c-7.1-.34-14.22-.54-21.33-.49-3.75,0-4.55-1.66-4.4-5,.33-7.27.54-14.56.49-21.84,0-3.54,1.55-4.83,4.78-4.76,7.44.16,14.9.17,22.32.68,1.25.08,3.24,2.24,3.36,3.58C1030.51,159.45,1030.12,163.54,1030,167.59Zm-4.88-10.44-20-.47-.48,20.64,19.86.46c.1-1.08.22-1.89.24-2.71C1024.88,169.2,1025,163.33,1025.15,157.15Z"/><path class="cls-2" d="M1217.11,213.41c.57,7.36-6.56,15.45-15.42,15.59s-16.91-8-16-16.31c1.08-9.82,7-14.82,15.42-15.22A15.42,15.42,0,0,1,1217.11,213.41Zm-15.21-10.59c-4.7-.29-9.61,4.28-10.25,8.85-.88,6.36,4.32,11.56,9.45,12.11,4.59.49,10.49-5.2,10.87-9.9C1212.39,208.58,1207.45,203.16,1201.9,202.82Z"/><path class="cls-2" d="M1070.21,276.12c1.29,8.43-7.73,14.86-15.56,14.84-7.48,0-15.51-8.41-15.24-16,.29-8.32,8.82-15.26,14.6-15.1C1065.17,260.19,1070.46,265.36,1070.21,276.12Zm-5.11-.38c.17-6.36-3.41-10.11-9.88-10.35a10.45,10.45,0,0,0-10.41,9.78c-.12,5.14,4.81,10.19,10.15,10.4C1061,285.81,1064.94,282,1065.1,275.74Z"/><path class="cls-2" d="M1134.11,293c-2.73,3.31-4.65,6.06-7,8.33a8.76,8.76,0,0,1-4.91,1.94c-.82.08-2.15-1.31-2.58-2.31-.25-.6.62-1.93,1.3-2.62,2-2,4.44-3.59,6.13-5.79,4.46-5.78,10.53-5.65,13.85.77,2.95,5.69,4.87,7.58,9.73.59,5.26-7.55,10.09-7.11,14.71.76,1.56,2.65,4.43,4.54,6.73,6.82-3.52,5-3.56,5-14.36-7.3-3.72,3.61-5.69,9.8-12,9.73C1139,303.86,1137.26,297.75,1134.11,293Z"/><path class="cls-2" d="M1011.55,218c-4.39,4-5.86,11.73-14.7,8.62.62-1.39,1-3.12,2-4.22,1.95-2.08,4.67-3.5,6.38-5.72,4.1-5.32,9.64-5.35,13.2.28.36.55.54,1.21.85,1.8,2.73,5.15,4.85,5.32,8.28.6,1-1.33,1.59-2.94,2.65-4.18,3-3.45,8.22-2.49,11.41,2,1.83,2.57,2.3,6.48,6.73,6.48.36,0,1.17,2,1,2.79a3.4,3.4,0,0,1-2.33,1.92c-4.81.81-6.61-3.19-9-6.07-.92-1.11-1.35-2.61-2.23-4.38-4.23,3.47-5.3,9.94-12.19,10.14C1016.41,228.3,1015.56,221.94,1011.55,218Z"/><path class="cls-2" d="M1253.07,183.78c4.51,4.24,8.45,7,11.11,10.68,3.64,5.06,3.11,8.85-2.72,11.79-6.44,3.26-6.7,5.78-.29,9.63,7.52,4.51,5,11.1-.46,14.55-1.92,1.2-3.23,3.33-5,4.86a19.82,19.82,0,0,1-3.42,2c-.55-1.34-2-3.18-1.51-3.92a39.16,39.16,0,0,1,5.77-7.1c1.08-1.09,2.74-1.61,4.94-2.83-2.19-1.67-3.61-3-5.23-4-6.7-4.07-6.83-12-.21-16.25a11.2,11.2,0,0,1,2.09-1.34c5-1.77,2.48-3.43.13-5.5a27.76,27.76,0,0,1-5.94-6.61C1251.63,188.47,1252.72,186.17,1253.07,183.78Z"/><path class="cls-2" d="M1151.58,466.17c-.28-5.49-.28-5.49,9.4-15.6a26.09,26.09,0,0,0-3.71-2.95c-3.75-2-5.57-4.76-5.57-9.21s2.75-6.52,6.08-8.32c4.6-2.48,4.58-3,.21-5.88-3-2-6.42-4-5.58-8.54.2-1.07,1.07-2.63,1.87-2.79s2.16.87,2.93,1.7c1.51,1.59,2.5,3.78,4.2,5.06,7.38,5.58,6.63,9.84.61,14.45a20.75,20.75,0,0,1-3,1.83c-3.23,1.71-2.82,3.9-.44,5.79,3.31,2.62,8.26,4.1,7.94,9.33-.29,4.75-4.64,6.42-8.18,8.55-.9.54-1.23,1.94-2,2.72C1155.16,463.47,1153.76,464.43,1151.58,466.17Z"/><path class="cls-2" d="M1173.13,136.71c-3.28-6.1-2.12-9.3,3.62-12.71,5-3,5.2-3.64,0-6.25-3.92-2-5.21-4.56-5.09-8.71s2-6.84,5.73-8.56a33.74,33.74,0,0,0,4.42-3c-4.69-4-12-6-9-14.29.91,0,2.5-.41,3,.15a127.39,127.39,0,0,1,8.8,10.48c3,4.12,2.28,7.14-1.95,9.82a41.06,41.06,0,0,0-3.77,2.43c-2.8,2.27-3.45,4.47.25,6.66,1.84,1.1,4.33,2.34,4.9,4.06.89,2.65,1.25,6.14.2,8.56-.89,2-4.34,2.85-6.22,4.66S1175.05,134,1173.13,136.71Z"/><path class="cls-2" d="M1094.64,447.82c.18-8.22,5.66-14.64,13.77-15.53,1.44-.15,3.09,1.64,4.65,2.53-1.08.92-2,2.29-3.24,2.68-8.85,2.82-12.21,7.48-8.89,14.36,1.36,2.82,5.33,4.36,8,6.56,1.19,1,2.23,2.11,3.34,3.18-1.78.65-3.76,2.17-5.29,1.8C1098.66,461.38,1094.47,455.84,1094.64,447.82Z"/><path class="cls-2" d="M1137.11,132.16c3.15-.68,5,.3,4.43,3.84-1.18,7.3-9.09,14.1-16,13.93s-14.11-6.24-15.33-13.41c-.54-3.19,0-6,4.61-4.92,1.42,5.45,2.19,11.66,9.75,12.17C1131.25,144.23,1133.47,142.09,1137.11,132.16Z"/><path class="cls-2" d="M1011.47,320.19c-8.76-.25-15.52-6.61-15.09-14.57.08-1.38,1.67-2.68,2.56-4,.82,1.23,2.12,2.37,2.37,3.7,1,5.21,5.21,9.6,9.88,9.77,5.47.19,9.1-3.12,10.61-9.11.35-1.4,2-2.48,3-3.71.64,1.37,1.65,2.69,1.88,4.13C1027.66,312.28,1019.32,321.56,1011.47,320.19Z"/><path class="cls-2" d="M1222,328.41c-9.17,1.82-14.23-1.31-17.27-7.26a15.47,15.47,0,0,1,.86-15.77c3.3-4.92,8.18-8.48,15.4-6.38.19,2.46.64,4.37-3.35,4.82a9.82,9.82,0,0,0-9.07,10.5c.35,5.27,3,8.2,8.84,9.76C1218.9,324.47,1220,326.41,1222,328.41Z"/><path class="cls-2" d="M1054.54,459l7.4,3.28,7-4.12c.65,1.11,1,1.52.95,1.64-3.19,4.84-3.58,9.77.69,14.9l-1.71.9-7.65-3.24-6.79,3.88-1.58-1.19,3.79-8.33c-.92-1.59-2.24-3.88-3.57-6.16Z"/><path class="cls-2" d="M1245.28,442.63c.11-5.07,2.54-7.2,8-7a7.66,7.66,0,1,1-1.13,15.27C1247.25,450.75,1245.16,448.23,1245.28,442.63Z"/><path class="cls-2" d="M1265.74,314.7l4.34,7.37-1.38,1.5-7-3.73-7.38,3.72-1.59-1.61c1.33-2.33,2.65-4.67,3.24-5.71l-1.55-9,6.64,2.08c2.3-.51,6.3-2.49,7.42-1.43C1271.92,311.15,1266.23,312.28,1265.74,314.7Z"/><path class="cls-2" d="M1213.94,250.64c5,.14,7.33,2.45,7.21,7.31a7.66,7.66,0,1,1-15.28-.38C1206,252.54,1208.39,250.48,1213.94,250.64Z"/><path class="cls-2" d="M1100.18,386.63c-.06,5.33-2.4,7.7-7.58,7.66-4.9,0-7.74-2.89-7.71-7.71a7.82,7.82,0,0,1,8.26-7.56C1096.75,379.09,1100.22,382.85,1100.18,386.63Z"/><path class="cls-2" d="M1153.05,172.61l4.41,7.53-1.29,1.56-7.79-3.22-6.8,4-1.64-1.39c1.23-2.61,2.46-5.23,3.88-8.23l-3.69-6.74c1.62-.31,2.24-.64,2.55-.45,3.92,2.33,7.76,4.36,11.3-.65a3.82,3.82,0,0,1,2.14,1.19,3.57,3.57,0,0,1,.14,3A21.42,21.42,0,0,1,1153.05,172.61Z"/><path class="cls-2" d="M1095.22,33.86l-6.6-4-6.6,3.78-1.55-1.22c1-2.53,2-5.06,3.18-7.92l-4-6.63,1.46-1.68,7.41,4.4,6.91-4.18,1.49,1.21-3.17,7.21,3.12,7.46Z"/><path class="cls-2" d="M1089.42,105.27c.14-5.15,2.22-7,7.59-6.86,4.72.16,7.7,3,7.68,7.25,0,3.7-4.52,8.51-8,7.91C1092.25,112.77,1088.32,110.09,1089.42,105.27Z"/><path class="cls-2" d="M996.68,432.84c5.91.47,23.7,20.1,23.21,25.3C1014.5,458.6,996.12,438.9,996.68,432.84Z"/><path class="cls-2" d="M1075.05,317.16l6.89,2.84,6.62-3.73,1.53,1.24-3.21,7.87,4,6.72-1.36,1.67-8.1-3.87-6.36,3.69-1.6-1.66,3.91-6.73c-1.07-2-2.35-4.35-3.63-6.73Z"/><path class="cls-2" d="M1241.55,63.77c-5.57.19-23.74-19.64-23-25.15C1224.08,38.43,1242.25,58.26,1241.55,63.77Z"/><path class="cls-2" d="M1072.3,155.93c1.32,11.34-.25,22.73,0,34-4,1.14-5-1.07-5-3.84.07-8.63.23-17.27.66-25.88.08-1.63,1.58-3.19,2.42-4.77Z"/><path class="cls-2" d="M1009.65,39.9c-.76,11.27.38,22.73-1.6,34l-1.95.36c-.76-1.64-2.17-3.27-2.17-4.9,0-8.63.21-17.26.55-25.88C1004.59,40.73,1005.7,38.52,1009.65,39.9Z"/><path class="cls-2" d="M1202.19,450l-.77,33c-3.48.78-4.94-.37-4.82-3.82.29-8.43.5-16.86.58-25.29C1197.21,450.53,1198.44,449.1,1202.19,450Z"/></svg>
